<svg width="70" height="70" viewBox="0 0 70 70"  xmlns="http://www.w3.org/2000/svg">
<g clip-path="url(#clip0)">
<path d="M63.5106 6.48973C54.858 -2.16178 40.778 -2.16178 32.1254 6.48973C28.0937 10.5202 25.8625 16.5508 26.0061 23.1124C26.0131 23.1976 26.6677 31.7686 19.7352 38.7024C17.9136 40.5228 17.9136 43.4867 19.7352 45.3083C20.6874 46.2593 21.999 46.74 23.3339 46.6677C23.2534 47.9594 23.7062 49.2792 24.691 50.2641C25.6011 51.1742 26.7973 51.6294 27.9933 51.6294C29.1894 51.6294 30.3866 51.1742 31.298 50.2653C38.2317 43.3316 46.804 43.9849 46.9673 43.999C53.4624 44.111 59.4813 41.9056 63.5106 37.8751C72.1634 29.221 72.1634 15.1434 63.5106 6.48973ZM61.8594 36.2236C58.277 39.8061 52.8533 41.7991 47.0968 41.6685C46.7024 41.6347 37.3777 40.8819 29.6468 48.614C28.7354 49.5231 27.2523 49.5231 26.3409 48.614C25.4296 47.7026 25.4296 46.2195 26.3409 45.3081C26.5684 45.0806 26.6829 44.783 26.6829 44.4842C26.6829 44.1855 26.5686 43.8868 26.3409 43.6593C25.8858 43.203 25.1472 43.203 24.6909 43.6593C23.8075 44.5426 22.2683 44.5414 21.385 43.6593C20.4736 42.7479 20.4736 41.2648 21.385 40.3534C29.1158 32.6215 28.3655 23.2966 28.3339 22.9839C28.2078 17.133 30.1904 11.722 33.774 8.13967C41.5177 0.397211 54.1167 0.397211 61.8592 8.13967C69.6016 15.8821 69.6019 28.4812 61.8594 36.2236Z" fill="#707070"/>
<path d="M37.9036 10.616C37.4473 10.1608 36.7086 10.1644 36.2535 10.6195C32.6664 14.2218 32.0794 19.0855 31.7853 23.7601C31.7445 24.4031 32.2334 24.9573 32.8764 24.9982C32.9021 24.9995 32.9266 25.0005 32.951 25.0005C33.5613 25.0005 34.0747 24.5256 34.1144 23.906C34.3817 19.6758 34.8927 15.293 37.9069 12.2671C38.3623 11.8095 38.36 11.071 37.9036 10.616Z" fill="#707070"/>
<path d="M31.6782 30.9889C31.0702 30.7813 30.4051 31.1045 30.1951 31.7125C29.9815 32.3333 29.817 32.9576 29.656 33.5784C29.3853 34.6182 29.1297 35.6019 28.6326 36.47C28.3128 37.029 28.5078 37.7432 29.0667 38.0617C29.2487 38.1667 29.4483 38.2158 29.6444 38.2158C30.0493 38.2158 30.4436 38.0046 30.6607 37.6277C31.3107 36.4888 31.6176 35.309 31.9151 34.1666C32.061 33.603 32.208 33.0347 32.4017 32.4722C32.6117 31.8616 32.2873 31.1989 31.6782 30.9889Z" fill="#707070"/>
<path d="M62.3249 26.8918C61.7333 26.6363 61.046 26.907 60.7893 27.4975C58.5674 32.6132 53.5941 35.884 48.0723 35.884C47.9941 35.884 47.9158 35.8828 47.8376 35.8817C47.1504 35.9108 46.6614 36.3834 46.6509 37.0288C46.6404 37.6729 47.1539 38.2039 47.798 38.2155C47.8891 38.2167 47.9812 38.2178 48.0723 38.2178C54.5253 38.2178 60.3354 34.3996 62.9306 28.4262C63.1872 27.836 62.9165 27.1487 62.3249 26.8918Z" fill="#707070"/>
<path d="M59.3785 10.6192C58.9234 10.1629 58.1836 10.1629 57.7284 10.6192C57.2733 11.0743 57.2733 11.8129 57.7284 12.2692C60.0658 14.6077 61.5174 17.7723 61.5174 20.5299C61.5174 21.1752 62.0402 21.6968 62.6843 21.6968C63.3284 21.6968 63.8512 21.1752 63.8499 20.5299C63.8501 17.1763 62.137 13.3791 59.3785 10.6192Z" fill="#707070"/>
<path d="M12.8327 60.668L8.17204 60.661H8.17081C7.52672 60.661 7.00514 61.1815 7.00391 61.8256C7.00391 62.4709 7.52549 62.9937 8.16958 62.9948L12.8302 63.0018H12.8315C13.4745 63.0018 13.9971 62.4813 13.9984 61.8372C13.9984 61.192 13.4768 60.6694 12.8327 60.668Z" fill="#707070"/>
<path d="M27.6453 49.9152C27.58 49.5418 27.3384 49.2233 26.9966 49.0599C26.7282 48.9315 26.5134 48.7856 26.342 48.6153C25.4306 47.7039 25.4306 46.2207 26.342 45.3094C26.5695 45.0819 26.6839 44.7831 26.6839 44.4844C26.6839 44.1857 26.5696 43.8869 26.342 43.6594C25.8868 43.2032 25.1483 43.2032 24.6919 43.6594C23.8086 44.5405 22.2683 44.5392 21.3872 43.6607C21.2133 43.4857 21.0675 43.2721 20.9403 43.0048C20.7769 42.6618 20.4584 42.4202 20.085 42.3561C19.7093 42.2895 19.3288 42.4121 19.0616 42.6805L13.0684 48.6738C9.86871 46.2782 5.29788 46.5348 2.38998 49.4393C-0.796824 52.6261 -0.796824 57.8142 2.38998 61.001C3.68404 62.2951 5.5325 62.7409 7.08687 62.9123C7.25722 64.4667 7.70293 66.315 8.99712 67.6092C10.5911 69.202 12.6846 69.9991 14.7781 69.9991C16.8715 69.9991 18.9661 69.2033 20.5601 67.6105C23.468 64.7037 23.7224 60.1317 21.3267 56.9332L27.3199 50.9388C27.5882 50.67 27.7095 50.2884 27.6453 49.9152ZM18.9097 56.0471C18.4535 56.5033 18.4535 57.2408 18.9097 57.6972C21.1875 59.9749 21.1875 63.6811 18.9097 65.9589C16.632 68.2355 12.9258 68.2355 10.648 65.9589C9.62111 64.9309 9.40755 63.0719 9.33646 61.7639C9.30378 61.1711 8.82882 60.695 8.23491 60.6634C6.92567 60.5911 5.06669 60.3776 4.03992 59.3507C1.76217 57.0729 1.76217 53.3667 4.03992 51.0889C5.1788 49.9501 6.67479 49.3817 8.17078 49.3817C9.66554 49.3817 11.1628 49.9511 12.3016 51.0889C12.7579 51.5452 13.4953 51.5452 13.9517 51.0889L19.735 45.3069C19.7362 45.3069 19.7362 45.3081 19.7362 45.3081C20.6885 46.2604 22.007 46.7493 23.335 46.6675C23.2544 47.9593 23.7072 49.279 24.692 50.2652L18.9097 56.0471Z" fill="#707070"/>
<path d="M9.33089 57.1649C9.32966 56.5209 8.80807 56.0004 8.16398 56.0004H8.16275C7.51743 56.0015 6.99584 56.5243 6.99707 57.1696L7.00405 61.8302C7.00528 62.4743 7.52686 62.9948 8.17095 62.9948H8.17218C8.8175 62.9936 9.33909 62.4709 9.33786 61.8256L9.33089 57.1649Z" fill="#707070"/>
</g>
<defs>
<clipPath id="clip0">
<rect width="70" height="70" fill="white"/>
</clipPath>
</defs>
</svg>
