<svg width="80" height="80" viewBox="0 0 80 80"  xmlns="http://www.w3.org/2000/svg">
<path d="M13.2266 40.5062C13.2951 40.3459 13.3313 40.1738 13.3335 39.9996C13.3284 39.6466 13.1902 39.3087 12.9468 39.0529C12.8171 38.9351 12.6684 38.8401 12.5066 38.7723C12.0099 38.5645 11.4371 38.6751 11.0534 39.0529C10.8098 39.3084 10.6716 39.6465 10.6666 39.9996C10.6621 40.1745 10.6985 40.3479 10.7727 40.5062C10.8405 40.6677 10.9354 40.8166 11.0532 40.9463C11.3088 41.1898 11.647 41.3277 11.9999 41.333C12.1741 41.3309 12.3462 41.2946 12.5065 41.2263C12.8415 41.1048 13.1052 40.841 13.2266 40.5062Z" fill="#707070"/>
<path d="M26.7958 47.2642C27.0069 47.6947 27.4328 47.9786 27.9114 48.008C28.39 48.0373 28.8473 47.8075 29.1094 47.4061C31.1862 44.2916 31.1862 35.7081 29.1094 32.5936C28.9136 32.2991 28.6086 32.0944 28.2617 32.025C27.9148 31.9556 27.5545 32.0272 27.2605 32.2237C26.648 32.6323 26.4823 33.46 26.8906 34.0727C28.3678 36.2881 28.3678 43.7112 26.8906 45.9269C26.6209 46.3231 26.5847 46.8337 26.7958 47.2642Z" fill="#707070"/>
<path d="M32.224 45.9266C31.8157 46.5393 31.9811 47.3669 32.5936 47.7755C32.8879 47.9716 33.248 48.0429 33.5947 47.9737C33.9415 47.9044 34.2465 47.7001 34.4427 47.4059C36.5196 44.2913 36.5196 35.7079 34.4427 32.5934C34.1802 32.1929 33.7232 31.964 33.2452 31.9937C32.7674 32.0232 32.3421 32.3068 32.131 32.7366C31.9199 33.1663 31.9554 33.6763 32.2241 34.0726C33.7011 36.288 33.7011 43.7112 32.224 45.9266Z" fill="#707070"/>
<path d="M37.5573 45.9266C37.149 46.5393 37.3145 47.3669 37.927 47.7755C38.2212 47.9716 38.5813 48.0429 38.9281 47.9737C39.2748 47.9043 39.5798 47.7001 39.7759 47.4059C41.8527 44.2913 41.8527 35.7079 39.7759 32.5934C39.5134 32.1929 39.0563 31.964 38.5784 31.9937C38.1004 32.0233 37.6752 32.3068 37.464 32.7366C37.2529 33.1663 37.2884 33.6763 37.5571 34.0726C39.0345 36.288 39.0345 43.7112 37.5573 45.9266Z" fill="#707070"/>
<path d="M78.6667 50.6664H78.64C78.7048 50.1925 78.6577 49.7098 78.502 49.2575C78.4817 49.1981 78.4572 49.1401 78.4284 49.0843L75.198 42.736C75.0833 42.3528 75.0797 41.9448 75.1875 41.5596L78.5033 33.7342C78.8644 32.6898 78.6294 31.5318 77.89 30.7107C77.1413 29.8607 75.9892 29.4856 74.8834 29.7315C74.8162 29.7454 74.7502 29.7648 74.6861 29.7895L64.9556 33.4875C63.0878 33.85 61.1591 33.3015 59.7616 32.0103C55.1591 28.2373 49.7511 25.5723 43.9552 24.2212C43.9767 24.1489 43.9916 24.0748 43.9998 23.9998V17.7687C44.0189 15.9704 43.2367 14.2568 41.8658 13.0929C40.7822 12.1764 39.3375 11.8089 37.9478 12.0962C31.6866 13.335 26.4708 17.645 24.0741 23.5604C24.0572 23.6337 24.047 23.7084 24.0434 23.7835C20.6409 24.7509 17.383 26.169 14.3567 28.0006C10.3809 30.4192 6.69906 33.2906 3.38469 36.5571C2.07328 37.867 1.33656 39.6445 1.33656 41.4979C1.33656 43.3514 2.07344 45.1289 3.38469 46.4387C4.90188 47.9275 6.49344 49.3385 8.15312 50.6665H1.33328C0.596875 50.6665 0 51.2634 0 51.9998C0.00578125 57.152 4.18109 61.3273 9.33328 61.3331H12.6206L15.3438 65.8721C16.0558 67.1525 17.3911 67.9614 18.8555 67.9998H61.2286C62.693 67.9614 64.0283 67.1525 64.7403 65.8721L67.4639 61.3331H70.6667C75.8191 61.3275 79.9944 57.1521 80 51.9998C80 51.2632 79.4031 50.6664 78.6667 50.6664ZM38.4889 14.7067C39.0933 14.5893 39.7178 14.757 40.1822 15.161C40.9337 15.8164 41.3555 16.7715 41.3333 17.7685V23.6246C38.2122 22.9964 35.0372 22.6754 31.8534 22.6664C30.3011 22.6723 28.7519 22.8068 27.2217 23.0689C29.5284 18.7284 33.6666 15.6573 38.4889 14.7067ZM31.8536 25.3329C43.8797 25.3329 53.4539 30.0081 57.995 34.0075C60.0617 35.8732 62.8948 36.6404 65.6206 36.0718C65.6842 36.0578 65.7466 36.039 65.8075 36.0159L75.5094 32.329C75.6555 32.3167 75.7991 32.3732 75.8973 32.482C75.9786 32.5615 76.0209 32.6726 76.0133 32.786L72.6975 40.6109C72.3634 41.6037 72.3634 42.6785 72.6975 43.6715C72.7183 43.7323 72.7433 43.7914 72.7723 43.8486L75.9956 50.1825C76.0156 50.2837 75.9917 50.3889 75.9298 50.4715C75.8355 50.594 75.6864 50.6618 75.532 50.6525L65.9428 45.7273C65.8409 45.6753 65.7328 45.6364 65.6213 45.6114C62.8981 45.0437 60.0677 45.8084 58.0008 47.67C57.4666 48.139 55.2098 49.9345 54.2325 50.666H19.4814C20.7412 47.789 21.3727 44.6764 21.3334 41.5359C21.4636 37.1389 20.1658 32.8181 17.6344 29.2204C21.9839 26.7793 26.8669 25.4443 31.8536 25.3329ZM69.7216 50.6664H58.5533C59.0989 50.227 59.5623 49.8473 59.7648 49.6696C61.1505 48.4093 63.0408 47.8604 64.8859 48.1826L69.7216 50.6664ZM5.25578 44.5381C3.58672 42.8562 3.58547 40.1432 5.25312 38.46C8.29875 35.4642 11.6663 32.8142 15.2941 30.5581C17.6159 33.7365 18.8036 37.6023 18.6666 41.536C18.7294 44.7129 17.9864 47.854 16.5072 50.6662H12.5872C9.98312 48.8232 7.53141 46.774 5.25578 44.5381ZM62.4538 64.4996C62.218 64.9715 61.7539 65.287 61.2284 65.3329H18.8555C18.33 65.287 17.8661 64.9714 17.6302 64.4996L15.7305 61.3329H64.3542L62.4538 64.4996ZM70.6667 58.6664H9.33328C6.16672 58.6623 3.43844 56.4348 2.80078 53.3331H77.2011C76.5592 56.4329 73.8323 58.6584 70.6667 58.6664Z" fill="#707070"/>
</svg>
