<svg width="70" height="70" viewBox="0 0 70 70"  xmlns="http://www.w3.org/2000/svg">
<path d="M9.58744 61.9468L9.57487 61.9372C8.97549 61.4783 8.11745 61.5917 7.65807 62.1912C7.19897 62.7906 7.31272 63.6488 7.91196 64.108L7.92454 64.1176C8.17254 64.3076 8.46485 64.3995 8.75496 64.3995C9.1658 64.3995 9.57213 64.2149 9.84119 63.8636C10.3006 63.2641 10.1868 62.406 9.58744 61.9468Z" fill="#707070"/>
<path d="M9.58744 50.7359L9.57487 50.7263C8.97549 50.2673 8.11745 50.3808 7.65807 50.9803C7.19897 51.5797 7.31272 52.4379 7.91196 52.8971L7.92454 52.9067C8.17254 53.0967 8.46485 53.1886 8.75496 53.1886C9.1658 53.1886 9.57213 53.004 9.84119 52.6526C10.3006 52.0531 10.1868 51.1951 9.58744 50.7359Z" fill="#707070"/>
<path d="M9.58744 39.5248L9.57487 39.5152C8.97549 39.0563 8.11745 39.1697 7.65807 39.7692C7.19897 40.3686 7.31272 41.2268 7.91196 41.686L7.92454 41.6956C8.17254 41.8857 8.46485 41.9775 8.75496 41.9775C9.1658 41.9775 9.57213 41.793 9.84119 41.4416C10.3006 40.8421 10.1868 39.984 9.58744 39.5248Z" fill="#707070"/>
<path d="M62.0757 61.9425L62.063 61.9329C61.4611 61.4768 60.6036 61.595 60.1475 62.1968C59.6914 62.7985 59.8096 63.6561 60.4114 64.1122L60.4241 64.1218C60.6712 64.309 60.9611 64.3995 61.2488 64.3995C61.6621 64.3995 62.0706 64.2129 62.3395 63.8581C62.7956 63.2562 62.6774 62.3986 62.0757 61.9425Z" fill="#707070"/>
<path d="M62.0758 50.7317L62.0631 50.7221C61.4613 50.266 60.6038 50.3841 60.1477 50.986C59.6917 51.5875 59.8098 52.4452 60.4115 52.9013L60.4243 52.9108C60.6713 53.098 60.9613 53.1885 61.2489 53.1885C61.6622 53.1885 62.0708 53.0019 62.3397 52.6471C62.7958 52.0454 62.6777 51.1878 62.0758 50.7317Z" fill="#707070"/>
<path d="M62.0759 39.5207L62.0632 39.5112C61.4613 39.0551 60.6038 39.1732 60.1477 39.775C59.6916 40.3769 59.8099 41.2342 60.4116 41.6903L60.4243 41.6999C60.6714 41.8871 60.9613 41.9776 61.249 41.9776C61.6623 41.9776 62.0708 41.791 62.3397 41.4362C62.7958 40.8345 62.6777 39.9768 62.0759 39.5207Z" fill="#707070"/>
<path d="M50.5139 44.8438H50.4961C49.7411 44.8438 49.1289 45.4558 49.1289 46.2109C49.1289 46.966 49.741 47.5781 50.4961 47.5781H50.5139C51.2688 47.5781 51.881 46.966 51.881 46.2109C51.881 45.4558 51.2688 44.8438 50.5139 44.8438Z" fill="#707070"/>
<path d="M19.5041 56.0547H19.4863C18.7314 56.0547 18.1191 56.6668 18.1191 57.4219C18.1191 58.177 18.7314 58.7891 19.4863 58.7891H19.5041C20.2591 58.7891 20.8713 58.177 20.8713 57.4219C20.8713 56.6668 20.2592 56.0547 19.5041 56.0547Z" fill="#707070"/>
<path d="M11.0452 25.3189C10.7909 25.0646 10.4382 24.9183 10.0786 24.9183C9.71904 24.9183 9.36631 25.0646 9.11201 25.3189C8.85785 25.5732 8.71143 25.926 8.71143 26.2869C8.71143 26.6465 8.85771 26.9978 9.11201 27.2521C9.36631 27.5078 9.71781 27.6527 10.0786 27.6527C10.4382 27.6527 10.7909 27.5078 11.0452 27.2521C11.2994 26.9978 11.4458 26.6465 11.4458 26.2869C11.4458 25.926 11.2995 25.5746 11.0452 25.3189Z" fill="#707070"/>
<path d="M68.6328 33.6328H62.9543C65.3978 32.2273 67.0478 29.592 67.0478 26.5766C67.0478 23.4463 65.2719 20.6598 62.5662 19.304C63.033 18.2663 63.2751 17.1393 63.2751 15.9752C63.2751 11.4889 59.6252 7.83891 55.1388 7.83891C53.7243 7.83891 52.3659 8.19574 51.1552 8.87865C49.5668 7.7592 47.6674 7.1523 45.7064 7.1523C45.5734 7.1523 45.4415 7.15695 45.3097 7.16242C43.8653 2.95176 39.8375 0.0065625 35.3012 0.0065625C31.2106 0.0065625 27.509 2.37576 25.7651 6.00605C25.4379 5.9757 25.1092 5.96039 24.7808 5.96039C20.4817 5.96039 16.6634 8.55654 15.0332 12.4277C14.7439 12.3394 14.4495 12.2623 14.1508 12.1954C14.3075 10.448 14.8617 9.10848 15.8074 8.20777C16.6312 7.42314 17.4586 7.26059 17.4934 7.25402L17.4744 7.25717L17.4742 7.25566C17.7632 7.21314 18.0368 7.07984 18.2444 6.87121C18.4986 6.61691 18.645 6.26555 18.645 5.90598C18.645 5.54504 18.4987 5.19367 18.2444 4.93801C17.9901 4.68371 17.6374 4.53742 17.2778 4.53742C17.2011 4.53742 17.125 4.54549 17.0498 4.55834L17.0494 4.55602C16.2375 4.68385 15.1272 5.13885 14.1032 6.06334V1.36719C14.1032 0.61209 13.491 0 12.736 0H9.45479C8.69982 0 8.0876 0.61209 8.0876 1.36719V6.47924C6.51478 4.55164 4.81687 3.4248 4.68521 3.33881C4.05371 2.92687 3.20906 3.10488 2.79604 3.73543C2.38287 4.36611 2.55938 5.21309 3.1891 5.62748C3.23436 5.65715 7.37078 8.42707 7.98533 12.4117C3.35891 13.8015 0 17.8676 0 22.6562C0 24.6457 1.13463 29.423 2.2482 33.6328H1.36719C0.612227 33.6328 0 34.2449 0 35V68.6328C0 69.3879 0.612227 70 1.36719 70H68.6328C69.3878 70 70 69.3879 70 68.6328V35C70 34.2449 69.3878 33.6328 68.6328 33.6328ZM24.7808 8.69477C25.3068 8.69477 25.8334 8.7474 26.3465 8.85131C27.0143 8.98639 27.6794 8.60973 27.9066 7.96742C29.0131 4.84135 31.9847 2.74094 35.3012 2.74094C38.5332 2.74094 41.4176 4.75603 42.5883 7.68223C38.8954 8.97436 36.2384 12.4917 36.2384 16.6201C36.2384 17.3752 36.8506 17.9873 37.6056 17.9873C38.3605 17.9873 38.9728 17.3752 38.9728 16.6201C38.9728 12.9072 41.9934 9.88668 45.7063 9.88668C47.3528 9.88668 48.9385 10.4887 50.1709 11.5819C50.6569 12.0129 51.3795 12.0423 51.899 11.6524C52.8392 10.9464 53.9595 10.5733 55.1385 10.5733C58.1171 10.5733 60.5404 12.9966 60.5404 15.9752C60.5404 17.1462 60.172 18.2603 59.4746 19.1968C59.202 19.5631 59.13 20.0415 59.2833 20.4717C59.4366 20.902 59.7942 21.2274 60.2372 21.3391C62.6371 21.9442 64.3133 24.0979 64.3133 26.5766C64.3133 29.5552 61.89 31.9785 58.9114 31.9785C58.5721 31.9785 58.2276 31.9454 57.8873 31.8802C57.2246 31.7528 56.5685 32.1285 56.3418 32.764C56.2347 33.0643 56.0993 33.3551 55.94 33.6328H54.214L59.8125 25.6074C60.0229 25.3058 60.1029 24.932 60.0344 24.5707C59.9659 24.2093 59.7547 23.8908 59.4486 23.6871L55.4626 21.0345C55.1521 20.8277 54.7704 20.7568 54.4065 20.8384C54.0426 20.9199 53.7276 21.1464 53.5348 21.4658L51.5416 24.7662L53.1732 16.5126C53.3187 15.7758 52.8429 15.0596 52.1073 14.9084L48.6285 14.1929C48.2691 14.1188 47.8948 14.1926 47.5902 14.3974C47.2855 14.6022 47.0761 14.9209 47.009 15.2817L46.5626 17.6791H43.372C42.617 17.6791 42.0048 18.2912 42.0048 19.0463V26.9136C41.0961 22.2612 36.9909 18.7387 32.0767 18.7387C29.8622 18.7387 27.759 19.4413 25.9945 20.7706C24.5394 21.8667 23.3965 23.3585 22.7088 25.0358C22.883 24.009 22.9689 23.2215 22.9689 22.6563C22.9689 20.8023 22.4654 19.0563 21.5798 17.5319C22.2981 15.5775 24.1656 14.2498 26.2779 14.2498C26.6135 14.2498 26.9499 14.2836 27.2777 14.35C27.9459 14.4859 28.612 14.1081 28.8388 13.4652C29.1322 12.6342 29.6427 11.8908 30.3153 11.3155C30.889 10.8247 30.9563 9.9616 30.4654 9.38779C29.9748 8.81398 29.1118 8.74686 28.5377 9.23754C27.7866 9.88012 27.1664 10.6591 26.7094 11.5274C26.5657 11.5194 26.4217 11.5154 26.278 11.5154C23.5568 11.5154 21.0986 12.94 19.7117 15.162C19.0623 14.5368 18.3333 13.9851 17.5391 13.5216C18.7395 10.6338 21.5805 8.69477 24.7808 8.69477ZM49.9874 32.6286L55.137 24.1021L56.7704 25.1892L50.8803 33.6328H49.7889L49.9874 32.6286ZM48.2772 27.1793V23.383C48.2844 23.3543 48.2923 23.3259 48.2978 23.2963L49.442 17.1516L50.2275 17.3132L48.2772 27.1793ZM44.7293 31.2612C44.7352 31.2093 44.7392 31.1568 44.7392 31.1035V20.4133H45.5429V33.6328H45.1114C45.1151 33.5472 45.1172 33.4615 45.1172 33.3755C45.1172 32.6303 44.9788 31.9177 44.7293 31.2612ZM25.9766 24.8828C25.9361 24.8828 25.8963 24.8854 25.8558 24.8858C27.1925 22.8104 29.5348 21.4729 32.0765 21.4729C35.6889 21.4729 38.7017 24.0816 39.3349 27.5137C37.4432 27.5271 35.7667 28.4791 34.7293 29.9355C32.9764 26.9179 29.7108 24.8828 25.9766 24.8828ZM33.2304 33.6328H18.9379H18.7228C19.3661 30.2132 22.3731 27.6172 25.9767 27.6172C29.5803 27.6172 32.5872 30.2132 33.2304 33.6328ZM39.375 30.2471C41.0335 30.2471 42.3828 31.6505 42.3828 33.3755C42.3828 33.4618 42.3787 33.5475 42.372 33.6328H36.3779C36.3712 33.5475 36.3671 33.4618 36.3671 33.3755C36.3672 31.6505 37.7165 30.2471 39.375 30.2471ZM10.822 2.73438H11.3688V11.9023C11.1855 11.9041 11.0031 11.909 10.822 11.9187V2.73438ZM2.816 21.5756C2.90131 21.5923 2.98936 21.6016 3.07945 21.6016H9.83855C10.5935 21.6016 11.2057 20.9895 11.2057 20.2344C11.2057 19.4793 10.5935 18.8672 9.83855 18.8672H3.77426C5.25219 16.3495 8.1535 14.634 11.4844 14.634C16.3092 14.634 20.2344 18.2327 20.2344 22.6562C20.2344 23.0129 20.1774 23.6711 19.9601 24.8828H14.5298C13.7748 24.8828 13.1626 25.4949 13.1626 26.25C13.1626 27.0051 13.7748 27.6172 14.5298 27.6172H19.0697C17.4109 29.1702 16.2749 31.273 15.9544 33.6328H5.07787C3.58422 28.0566 2.73438 24.0833 2.73438 22.6562C2.73438 22.2897 2.76377 21.9294 2.816 21.5756ZM67.2656 44.8438H55.2344C54.4794 44.8438 53.8672 45.4558 53.8672 46.2109C53.8672 46.966 54.4794 47.5781 55.2344 47.5781H67.2656V56.0547H24.1454C23.3904 56.0547 22.7782 56.6668 22.7782 57.4219C22.7782 58.177 23.3904 58.7891 24.1454 58.7891H67.2656V67.2656H2.73438V58.7891H14.7656C15.5206 58.7891 16.1328 58.177 16.1328 57.4219C16.1328 56.6668 15.5206 56.0547 14.7656 56.0547H2.73438V47.5781H45.8546C46.6096 47.5781 47.2218 46.966 47.2218 46.2109C47.2218 45.4558 46.6096 44.8438 45.8546 44.8438H2.73438V36.3672H4.03088H67.2656V44.8438Z" fill="#707070"/>
<path d="M33.5596 7.38281H33.5415C32.7865 7.38281 32.1743 7.9949 32.1743 8.75C32.1743 9.5051 32.7865 10.1172 33.5415 10.1172H33.5596C34.3145 10.1172 34.9267 9.5051 34.9267 8.75C34.9267 7.9949 34.3145 7.38281 33.5596 7.38281Z" fill="#707070"/>
</svg>
