<svg width="70" height="70" viewBox="0 0 70 70"  xmlns="http://www.w3.org/2000/svg">
<g clip-path="url(#clip0)">
<path d="M51.3205 29.1768H48.989C48.2895 29.1768 47.8232 29.643 47.8232 30.3425C47.8232 31.0419 48.2895 31.5082 48.989 31.5082H51.3205C52.02 31.5082 52.4863 31.0419 52.4863 30.3425C52.4863 29.6432 52.02 29.1768 51.3205 29.1768Z" fill="#707070"/>
<path d="M16.3478 53.6578H10.5189V44.3316C10.5189 43.6322 10.0527 43.1659 9.35322 43.1659C8.65376 43.1659 8.1875 43.6322 8.1875 44.3316V54.8235C8.1875 55.523 8.65376 55.9892 9.35322 55.9892H16.3478C17.0473 55.9892 17.5135 55.523 17.5135 54.8235C17.5135 54.1242 17.0473 53.6578 16.3478 53.6578Z" fill="#707070"/>
<path d="M15.998 27.195C15.5317 26.7288 14.8323 26.7288 14.3659 27.195C13.8995 27.6613 13.8996 28.3608 14.3659 28.8272L15.5316 29.9929C15.7648 30.2261 15.9978 30.3426 16.3476 30.3426C16.6973 30.3426 16.9305 30.2261 17.1636 29.9929C17.6298 29.5266 17.6298 28.8272 17.1636 28.3608L15.998 27.195Z" fill="#707070"/>
<path d="M25.6739 22.1822C25.6739 21.4827 25.2077 21.0165 24.5082 21.0165H23.3425C22.643 21.0165 22.1768 21.4827 22.1768 22.1822C22.1768 22.8817 22.643 23.3479 23.3425 23.3479H24.5082C25.2077 23.3481 25.6739 22.8817 25.6739 22.1822Z" fill="#707070"/>
<path d="M26.8398 30.3427C26.1403 30.3427 25.6741 30.8089 25.6741 31.5084V32.6741C25.6741 33.3735 26.1403 33.8398 26.8398 33.8398C27.5392 33.8398 28.0055 33.3735 28.0055 32.6741V31.5084C28.0055 30.8089 27.5392 30.3427 26.8398 30.3427Z" fill="#707070"/>
<path d="M9.0033 21.8324L10.169 20.6667C10.6353 20.2004 10.6353 19.501 10.169 19.0346C9.70275 18.5682 9.0033 18.5683 8.5369 19.0346L7.37118 20.2003C6.90492 20.6665 6.90492 21.366 7.37118 21.8324C7.60438 22.0656 7.83744 22.1821 8.18717 22.1821C8.5369 22.1821 8.7701 22.0656 9.0033 21.8324Z" fill="#707070"/>
<path d="M15.998 38.8526C15.5317 38.3864 14.8323 38.3864 14.3659 38.8526C13.8995 39.3189 13.8996 40.0183 14.3659 40.4847L15.5316 41.6505C15.7648 41.8837 15.9978 42.0002 16.3476 42.0002C16.6973 42.0002 16.9305 41.8837 17.1636 41.6505C17.6298 41.1842 17.6298 40.4847 17.1636 40.0183L15.998 38.8526Z" fill="#707070"/>
<path d="M26.0235 49.3446L24.8578 50.5103C24.3915 50.9765 24.3915 51.676 24.8578 52.1424C25.0909 52.3756 25.324 52.4921 25.6737 52.4921C26.0235 52.4921 26.2567 52.3756 26.4897 52.1424L27.6554 50.9767C28.1217 50.5104 28.1217 49.811 27.6554 49.3446C27.1893 48.8783 26.4899 48.8783 26.0235 49.3446Z" fill="#707070"/>
<path d="M68.8072 58.321H66.3288C66.4241 58.0233 66.4757 57.7098 66.4757 57.3883V31.0421C68.9238 28.3608 70.2062 24.9801 69.973 21.3662C69.5068 14.6048 63.7944 9.35884 56.7998 9.35884H24.8628C24.5093 9.34573 24.1578 9.34491 23.8083 9.35884H23.3422C23.1866 9.35884 23.0433 9.38316 22.9132 9.42674C21.4243 9.59081 19.9738 10.0184 18.5625 10.7578C16.2309 9.47537 13.5497 9.12564 10.8684 9.47537C5.03957 10.2914 0.493089 15.1876 0.0268285 21.0164C-0.20637 24.7469 1.07602 28.2442 3.52412 30.9254V57.2716C3.52412 57.6379 3.58328 57.9904 3.69134 58.3208H1.19268C0.493226 58.3208 0.0269651 58.7871 0.0269651 59.4866C0.0269651 60.186 0.493226 60.6523 1.19268 60.6523H6.90489H32.6683H63.0948H68.807C69.5065 60.6523 69.9727 60.186 69.9727 59.4866C69.9727 58.7871 69.5066 58.321 68.8072 58.321ZM5.85584 57.2718V30.4591C5.85584 30.2259 5.73931 29.8762 5.50611 29.6432C3.17453 27.4282 2.12534 24.3972 2.35854 21.2496C2.8248 16.47 6.55529 12.5064 11.2183 11.8069C11.8012 11.6904 12.384 11.6904 12.8504 11.6904C14.7156 11.6904 16.4643 12.1567 18.0964 13.0893C18.4461 13.3225 18.9124 13.3225 19.2621 13.0893C20.4926 12.4057 21.8435 11.9647 23.2206 11.7856C23.2942 11.7997 23.3729 11.8069 23.4588 11.8069C23.4588 11.8069 23.4588 11.8069 23.5754 11.8069C23.6621 11.7635 23.7651 11.7365 23.8782 11.7192C24.1578 11.7001 24.4375 11.6926 24.7172 11.6956C24.8045 11.6972 24.8919 11.6983 24.9787 11.7022C25.0145 11.7034 25.0503 11.705 25.086 11.7067C30.642 12.0033 34.9998 16.5477 34.9998 22.1823C34.9998 24.6259 34.1103 26.9803 32.5648 28.8578C32.5582 28.8658 32.5515 28.8737 32.5448 28.8818C32.4417 29.0064 32.3357 29.1288 32.2268 29.249C31.7799 29.4045 31.5025 29.8039 31.5025 30.3427C31.5025 30.3628 31.5043 30.3821 31.5049 30.4019C31.5041 30.4212 31.5025 30.4395 31.5025 30.4594V58.3212H6.90503C6.3221 58.321 5.85584 57.8546 5.85584 57.2718ZM33.8342 58.321V31.5083H44.3261C45.0255 31.5083 45.4918 31.0421 45.4918 30.3426C45.4918 29.6432 45.0255 29.1769 44.3261 29.1769H35.2193C36.573 27.1247 37.3315 24.6886 37.3315 22.1823C37.3315 17.869 35.1166 14.022 31.8524 11.6904H56.7997C62.5119 11.6904 67.2916 16.0037 67.6413 21.4828C67.7495 24.2967 66.8514 27.1093 64.9502 29.1769H61.8124C61.113 29.1769 60.6467 29.6432 60.6467 30.3426C60.6467 31.0421 61.113 31.5083 61.8124 31.5083H64.144V57.2718C64.144 57.8547 63.6777 58.321 63.0948 58.321H33.8342Z" fill="#707070"/>
</g>
<defs>
<clipPath id="clip0">
<rect width="70" height="70" fill="white"/>
</clipPath>
</defs>
</svg>
