<svg width="70" height="70" viewBox="0 0 70 70"  xmlns="http://www.w3.org/2000/svg">
<g clip-path="url(#clip0)">
<path d="M69.3945 22.3102C30.6833 1.08156 33.1111 2.33339 32.6666 2.33339C2.83146 2.33339 0.116623 18.9607 0.0116233 19.6677C-0.00821003 19.8031 -4.33533e-05 17.0439 -4.33533e-05 64.1667C-4.33533e-05 66.0997 1.56696 67.6667 3.49996 67.6667H66.5C68.433 67.6667 70 66.0997 70 64.1667V48.9067C70.0002 48.5595 69.8459 48.2303 69.5788 48.0084C69.0316 47.5557 68.6455 47.8217 67.7833 47.8322C65.1421 47.8968 62.6896 46.4689 61.4419 44.1402C60.1942 41.8115 60.3639 38.9786 61.8807 36.8155C63.3975 34.6524 66.0029 33.5274 68.6175 33.9069C68.9587 33.9711 69.3109 33.88 69.5782 33.6583C69.8454 33.4366 70 33.1073 70 32.7601V23.3334C70.0001 22.9074 69.768 22.5151 69.3945 22.3102ZM2.33329 19.9314C2.54212 18.8336 5.75979 4.77172 32.3691 4.66672L64.2833 22.1667H2.33329V19.9314ZM16.3333 33.8334C14.0614 33.8323 11.9314 32.7288 10.6202 30.8735C9.30897 29.0182 8.97967 26.642 9.73696 24.5001H22.9296C23.6869 26.642 23.3576 29.0182 22.0464 30.8735C20.7352 32.7288 18.6051 33.8323 16.3333 33.8334ZM67.6666 31.5001C64.6614 31.5044 61.8411 32.9516 60.0851 35.3904C58.3291 37.8291 57.851 40.9628 58.8 43.8142C60.0335 47.6537 63.6344 50.2336 67.6666 50.1667V64.1667C67.6666 64.8111 67.1443 65.3334 66.5 65.3334H3.49996C2.85562 65.3334 2.33329 64.8111 2.33329 64.1667V24.5001H7.30562C6.32594 28.2775 7.80173 32.2656 11.0044 34.4954C14.2071 36.7251 18.4595 36.7251 21.6622 34.4954C24.8649 32.2656 26.3406 28.2775 25.361 24.5001H67.6666V31.5001Z" fill="#707070"/>
<path d="M50.1667 56C50.1667 58.5774 52.2561 60.6667 54.8334 60.6667C57.4108 60.6667 59.5001 58.5774 59.5001 56C59.5001 53.4227 57.4108 51.3334 54.8334 51.3334C52.2561 51.3334 50.1667 53.4227 50.1667 56ZM54.8334 53.6667C56.1221 53.6667 57.1668 54.7114 57.1668 56C57.1668 57.2887 56.1221 58.3334 54.8334 58.3334C53.5448 58.3334 52.5001 57.2887 52.5001 56C52.5001 54.7114 53.5448 53.6667 54.8334 53.6667Z" fill="#707070"/>
<path d="M31.5 42C27.0104 41.9948 23.0142 44.8446 21.5565 49.0909C20.0989 53.3373 21.5023 58.0407 25.0486 60.7939C28.595 63.5471 33.4994 63.741 37.252 61.2763C41.0046 58.8116 42.7749 54.2337 41.657 49.8855C40.4624 45.2505 36.2864 42.0085 31.5 42ZM31.5 44.3333C35.1009 44.339 38.2745 46.6989 39.3167 50.1457C38.2979 53.6143 35.1151 55.9967 31.5 55.9967C27.8848 55.9967 24.7021 53.6143 23.6833 50.1457C24.7254 46.6989 27.8991 44.339 31.5 44.3333ZM31.5 60.6667C27.8932 60.6586 24.7175 58.2887 23.6833 54.8333C25.6751 57.0579 28.5199 58.3292 31.5058 58.3292C34.4918 58.3292 37.3365 57.0579 39.3283 54.8333C38.2929 58.2928 35.1111 60.6638 31.5 60.6667Z" fill="#707070"/>
<path d="M10.5002 40.8334C7.92283 40.8334 5.8335 42.9227 5.8335 45.5C5.8335 48.0774 7.92283 50.1667 10.5002 50.1667C13.0775 50.1667 15.1668 48.0774 15.1668 45.5C15.1668 42.9227 13.0775 40.8334 10.5002 40.8334ZM10.5002 47.8334C9.2115 47.8334 8.16683 46.7887 8.16683 45.5C8.16683 44.2114 9.2115 43.1667 10.5002 43.1667C11.7888 43.1667 12.8335 44.2114 12.8335 45.5C12.8335 46.7887 11.7888 47.8334 10.5002 47.8334Z" fill="#707070"/>
<path d="M47.8331 40.8334C51.0547 40.8334 53.6664 38.2217 53.6664 35.0001C53.6664 31.7784 51.0547 29.1667 47.8331 29.1667C44.6114 29.1667 41.9998 31.7784 41.9998 35.0001C42.0036 38.2201 44.613 40.8295 47.8331 40.8334ZM47.8331 31.5001C49.7661 31.5001 51.3331 33.0671 51.3331 35.0001C51.3331 36.9331 49.7661 38.5001 47.8331 38.5001C45.9001 38.5001 44.3331 36.9331 44.3331 35.0001C44.3331 33.0671 45.9001 31.5001 47.8331 31.5001Z" fill="#707070"/>
<path d="M30.3332 37.3333C30.9775 37.3333 31.4998 36.811 31.4998 36.1667C31.4998 35.5223 30.9775 35 30.3332 35C29.6888 35 29.1665 35.5223 29.1665 36.1667C29.1665 36.811 29.6888 37.3333 30.3332 37.3333Z" fill="#707070"/>
<path d="M37.3334 30.3333C37.9777 30.3333 38.5001 29.811 38.5001 29.1667C38.5001 28.5223 37.9777 28 37.3334 28C36.6891 28 36.1667 28.5223 36.1667 29.1667C36.1667 29.811 36.6891 30.3333 37.3334 30.3333Z" fill="#707070"/>
<path d="M12.8332 59.5001C13.4775 59.5001 13.9998 58.9777 13.9998 58.3334C13.9998 57.6891 13.4775 57.1667 12.8332 57.1667C12.1888 57.1667 11.6665 57.6891 11.6665 58.3334C11.6665 58.9777 12.1888 59.5001 12.8332 59.5001Z" fill="#707070"/>
<path d="M48.9999 47.8333C49.6442 47.8333 50.1666 47.311 50.1666 46.6667C50.1666 46.0223 49.6442 45.5 48.9999 45.5C48.3556 45.5 47.8333 46.0223 47.8333 46.6667C47.8333 47.311 48.3556 47.8333 48.9999 47.8333Z" fill="#707070"/>
</g>
<defs>
<clipPath id="clip0">
<rect width="70" height="70" fill="white"/>
</clipPath>
</defs>
</svg>
