<svg width="70" height="70" viewBox="0 0 70 70"  xmlns="http://www.w3.org/2000/svg">
<path d="M51.7245 40.9477L49.7569 39.9885C46.9831 45.6826 41.3284 49.2187 35 49.2187V51.4062C42.1728 51.4062 48.58 47.3987 51.7245 40.9477Z" fill="#707070"/>
<path d="M53.2669 36.2971L51.1176 35.8914C50.9864 36.5837 50.8092 37.2728 50.5894 37.9399L52.6675 38.6235C52.9169 37.8656 53.1181 37.0825 53.2669 36.2971Z" fill="#707070"/>
<path d="M62.0234 13.8983C62.4511 13.4706 62.4511 12.7794 62.0234 12.3517L58.7422 9.07047C58.3145 8.64281 57.6233 8.64281 57.1956 9.07047L47.3322 18.9339C45.44 17.2506 43.212 15.9414 40.7511 15.1386C41.2652 14.1903 41.5627 13.1337 41.5627 12.0312C41.5627 8.96219 39.443 6.38641 36.5916 5.67219C37.3178 4.26016 38.7736 3.28125 40.4689 3.28125V1.09375C37.6022 1.09375 35.1653 2.94438 34.2739 5.51141C30.9959 5.87453 28.4377 8.65812 28.4377 12.0312C28.4377 13.1337 28.7352 14.1903 29.2492 15.1397C26.7883 15.9425 24.5614 17.2517 22.6692 18.9339L12.8058 9.07047C12.3781 8.64281 11.6869 8.64281 11.2592 9.07047L7.97797 12.3517C7.55031 12.7794 7.55031 13.4706 7.97797 13.8983L18.4539 24.3742C17.3131 26.6022 16.6175 29.0872 16.4633 31.7188H13.1252C12.5203 31.7188 12.0314 32.2087 12.0314 32.8125C12.0314 44.3603 20.6075 53.9186 31.7189 55.5187V56.875C31.7189 62.3033 27.3034 66.7188 21.8752 66.7188H13.1252V68.9062H56.8752V66.7188H48.1252C42.6969 66.7188 38.2814 62.3033 38.2814 56.875V55.5187C49.3928 53.9186 57.9689 44.3603 57.9689 32.8125C57.9689 32.2087 57.48 31.7188 56.8752 31.7188H53.5381C53.3839 29.0861 52.6883 26.6022 51.5475 24.3742L62.0234 13.8983ZM57.9689 11.3903L59.7036 13.125L50.41 22.4186C49.9473 21.735 49.4256 21.0963 48.8777 20.4816L57.9689 11.3903ZM41.5627 18.5938C39.7536 18.5938 38.2814 20.0659 38.2814 21.875C38.2814 22.4777 37.7914 22.9688 37.1877 22.9688C36.5839 22.9688 36.0939 22.4777 36.0939 21.875V16.462C41.2356 16.8033 45.7375 19.5103 48.5036 23.5167C47.6177 24.1052 47.0314 25.1092 47.0314 26.25C47.0314 26.8527 46.5414 27.3438 45.9377 27.3438C45.3339 27.3438 44.8439 26.8527 44.8439 26.25V21.875C44.8439 20.0659 43.3717 18.5938 41.5627 18.5938ZM30.6252 12.0312C30.6252 9.99906 32.0241 8.30047 33.9064 7.81156V9.84375H36.0939V7.81156C37.9762 8.30047 39.3752 9.99906 39.3752 12.0312C39.3752 12.9522 39.0744 13.8283 38.5461 14.5666C37.3966 14.3445 36.2131 14.2188 35.0002 14.2188C33.7872 14.2188 32.6027 14.3445 31.4542 14.5677C30.9248 13.8283 30.6252 12.9522 30.6252 12.0312ZM10.2967 13.125L12.0314 11.3903L21.1216 20.4805C20.5747 21.0952 20.053 21.7339 19.5892 22.4175L10.2967 13.125ZM41.2291 66.7188H28.7713C31.8709 64.54 33.9064 60.9437 33.9064 56.875V55.7255C34.2717 55.743 34.6305 55.7812 35.0002 55.7812C35.3698 55.7812 35.7286 55.743 36.0939 55.7255V56.875C36.0939 60.9437 38.1294 64.54 41.2291 66.7188ZM35.0002 53.5938C23.9084 53.5938 14.8183 44.8591 14.2473 33.9062H55.7519C55.182 44.8591 46.0919 53.5938 35.0002 53.5938ZM18.6497 31.7188C19.1922 23.5462 25.7328 17.0045 33.9064 16.462V21.875C33.9064 23.6841 35.3786 25.1562 37.1877 25.1562C38.9967 25.1562 40.4689 23.6841 40.4689 21.875C40.4689 21.2723 40.9589 20.7812 41.5627 20.7812C42.1664 20.7812 42.6564 21.2723 42.6564 21.875V26.25C42.6564 28.0591 44.1286 29.5312 45.9377 29.5312C47.7467 29.5312 49.2189 28.0591 49.2189 26.25C49.2189 25.9109 49.383 25.6189 49.6258 25.4187C50.5981 27.335 51.2008 29.4634 51.3506 31.7188H18.6497Z" fill="#707070"/>
</svg>
